<svg width="368" height="24" viewBox="0 0 368 24" fill="none" xmlns="http://www.w3.org/2000/svg">
<rect width="368" height="24" fill="#2F71E5"/>
<path d="M8.30273 10.9844H9.20508C9.63477 10.9844 9.95312 10.877 10.1602 10.6621C10.3672 10.4473 10.4707 10.1621 10.4707 9.80664C10.4707 9.46289 10.3672 9.19531 10.1602 9.00391C9.95703 8.8125 9.67578 8.7168 9.31641 8.7168C8.99219 8.7168 8.7207 8.80664 8.50195 8.98633C8.2832 9.16211 8.17383 9.39258 8.17383 9.67773H6.48047C6.48047 9.23242 6.59961 8.83398 6.83789 8.48242C7.08008 8.12695 7.41602 7.84961 7.8457 7.65039C8.2793 7.45117 8.75586 7.35156 9.27539 7.35156C10.1777 7.35156 10.8848 7.56836 11.3965 8.00195C11.9082 8.43164 12.1641 9.02539 12.1641 9.7832C12.1641 10.1738 12.0449 10.5332 11.8066 10.8613C11.5684 11.1895 11.2559 11.4414 10.8691 11.6172C11.3496 11.7891 11.707 12.0469 11.9414 12.3906C12.1797 12.7344 12.2988 13.1406 12.2988 13.6094C12.2988 14.3672 12.0215 14.9746 11.4668 15.4316C10.916 15.8887 10.1855 16.1172 9.27539 16.1172C8.42383 16.1172 7.72656 15.8926 7.18359 15.4434C6.64453 14.9941 6.375 14.4004 6.375 13.6621H8.06836C8.06836 13.9824 8.1875 14.2441 8.42578 14.4473C8.66797 14.6504 8.96484 14.752 9.31641 14.752C9.71875 14.752 10.0332 14.6465 10.2598 14.4355C10.4902 14.2207 10.6055 13.9375 10.6055 13.5859C10.6055 12.7344 10.1367 12.3086 9.19922 12.3086H8.30273V10.9844ZM18.8805 12.7891H19.8473V14.1543H18.8805V16H17.1871V14.1543H13.6891L13.6129 13.0879L17.1695 7.46875H18.8805V12.7891ZM15.3004 12.7891H17.1871V9.77734L17.0758 9.9707L15.3004 12.7891Z" fill="white"/>
</svg>
