<svg width="256" height="24" viewBox="0 0 256 24" fill="none" xmlns="http://www.w3.org/2000/svg">
<rect width="256" height="24" fill="#2F71E5"/>
<path d="M10.6934 16H9V9.47266L6.97852 10.0996V8.72266L10.5117 7.45703H10.6934V16ZM19.4313 9.73633C19.4313 10.1504 19.3277 10.5176 19.1207 10.8379C18.9137 11.1582 18.6285 11.4141 18.2652 11.6055C18.6793 11.8047 19.0074 12.0801 19.2496 12.4316C19.4918 12.7793 19.6129 13.1895 19.6129 13.6621C19.6129 14.4199 19.3551 15.0195 18.8395 15.4609C18.3238 15.8984 17.6227 16.1172 16.7359 16.1172C15.8492 16.1172 15.1461 15.8965 14.6266 15.4551C14.107 15.0137 13.8473 14.416 13.8473 13.6621C13.8473 13.1895 13.9684 12.7773 14.2105 12.4258C14.4527 12.0742 14.7789 11.8008 15.1891 11.6055C14.8258 11.4141 14.5406 11.1582 14.3336 10.8379C14.1305 10.5176 14.0289 10.1504 14.0289 9.73633C14.0289 9.00977 14.2711 8.43164 14.7555 8.00195C15.2398 7.56836 15.898 7.35156 16.7301 7.35156C17.5582 7.35156 18.2145 7.56641 18.6988 7.99609C19.1871 8.42188 19.4313 9.00195 19.4313 9.73633ZM17.9137 13.5391C17.9137 13.168 17.8063 12.8711 17.5914 12.6484C17.3766 12.4258 17.0875 12.3145 16.7242 12.3145C16.3648 12.3145 16.0777 12.4258 15.8629 12.6484C15.648 12.8672 15.5406 13.1641 15.5406 13.5391C15.5406 13.9023 15.6461 14.1953 15.857 14.418C16.068 14.6406 16.3609 14.752 16.7359 14.752C17.1031 14.752 17.3902 14.6445 17.5973 14.4297C17.8082 14.2148 17.9137 13.918 17.9137 13.5391ZM17.7379 9.81836C17.7379 9.48633 17.65 9.2207 17.4742 9.02148C17.2984 8.81836 17.0504 8.7168 16.7301 8.7168C16.4137 8.7168 16.1676 8.81445 15.9918 9.00977C15.816 9.20508 15.7281 9.47461 15.7281 9.81836C15.7281 10.1582 15.816 10.4316 15.9918 10.6387C16.1676 10.8457 16.4156 10.9492 16.7359 10.9492C17.0563 10.9492 17.3023 10.8457 17.4742 10.6387C17.65 10.4316 17.7379 10.1582 17.7379 9.81836Z" fill="white"/>
</svg>
