<svg width="184" height="24" viewBox="0 0 184 24" fill="none" xmlns="http://www.w3.org/2000/svg">
<rect width="184" height="24" fill="#2F71E5"/>
<path d="M10.6934 16H9V9.47266L6.97852 10.0996V8.72266L10.5117 7.45703H10.6934V16ZM14.1227 11.8047L14.6148 7.46875H19.3961V8.88086H16.0035L15.7926 10.7148C16.1949 10.5 16.6227 10.3926 17.0758 10.3926C17.8883 10.3926 18.525 10.6445 18.9859 11.1484C19.4469 11.6523 19.6773 12.3574 19.6773 13.2637C19.6773 13.8145 19.5602 14.3086 19.3258 14.7461C19.0953 15.1797 18.7633 15.5176 18.3297 15.7598C17.8961 15.998 17.3844 16.1172 16.7945 16.1172C16.2789 16.1172 15.8004 16.0137 15.359 15.8066C14.9176 15.5957 14.568 15.3008 14.3102 14.9219C14.0563 14.543 13.9215 14.1113 13.9059 13.627H15.5816C15.6168 13.9824 15.7398 14.2598 15.9508 14.459C16.1656 14.6543 16.4449 14.752 16.7887 14.752C17.1715 14.752 17.4664 14.6152 17.6734 14.3418C17.8805 14.0645 17.984 13.6738 17.984 13.1699C17.984 12.6855 17.8648 12.3145 17.6266 12.0566C17.3883 11.7988 17.0504 11.6699 16.6129 11.6699C16.2105 11.6699 15.8844 11.7754 15.6344 11.9863L15.4703 12.1387L14.1227 11.8047Z" fill="white"/>
</svg>
