<svg width="816" height="24" viewBox="0 0 816 24" fill="none" xmlns="http://www.w3.org/2000/svg">
<rect width="816" height="24" fill="#2F71E5"/>
<path d="M12.3809 8.41797L9.08203 16H7.29492L10.5996 8.83984H6.35742V7.46875H12.3809V8.41797ZM15.5934 10.9844H16.4957C16.9254 10.9844 17.2438 10.877 17.4508 10.6621C17.6578 10.4473 17.7613 10.1621 17.7613 9.80664C17.7613 9.46289 17.6578 9.19531 17.4508 9.00391C17.2477 8.8125 16.9664 8.7168 16.607 8.7168C16.2828 8.7168 16.0113 8.80664 15.7926 8.98633C15.5738 9.16211 15.4645 9.39258 15.4645 9.67773H13.7711C13.7711 9.23242 13.8902 8.83398 14.1285 8.48242C14.3707 8.12695 14.7066 7.84961 15.1363 7.65039C15.5699 7.45117 16.0465 7.35156 16.566 7.35156C17.4684 7.35156 18.1754 7.56836 18.6871 8.00195C19.1988 8.43164 19.4547 9.02539 19.4547 9.7832C19.4547 10.1738 19.3355 10.5332 19.0973 10.8613C18.859 11.1895 18.5465 11.4414 18.1598 11.6172C18.6402 11.7891 18.9977 12.0469 19.232 12.3906C19.4703 12.7344 19.5895 13.1406 19.5895 13.6094C19.5895 14.3672 19.3121 14.9746 18.7574 15.4316C18.2066 15.8887 17.4762 16.1172 16.566 16.1172C15.7145 16.1172 15.0172 15.8926 14.4742 15.4434C13.9352 14.9941 13.6656 14.4004 13.6656 13.6621H15.359C15.359 13.9824 15.4781 14.2441 15.7164 14.4473C15.9586 14.6504 16.2555 14.752 16.607 14.752C17.0094 14.752 17.3238 14.6465 17.5504 14.4355C17.7809 14.2207 17.8961 13.9375 17.8961 13.5859C17.8961 12.7344 17.4273 12.3086 16.4898 12.3086H15.5934V10.9844Z" fill="white"/>
</svg>
