<svg width="424" height="24" viewBox="0 0 424 24" fill="none" xmlns="http://www.w3.org/2000/svg">
<rect width="424" height="24" fill="#2F71E5"/>
<path d="M8.30273 10.9844H9.20508C9.63477 10.9844 9.95312 10.877 10.1602 10.6621C10.3672 10.4473 10.4707 10.1621 10.4707 9.80664C10.4707 9.46289 10.3672 9.19531 10.1602 9.00391C9.95703 8.8125 9.67578 8.7168 9.31641 8.7168C8.99219 8.7168 8.7207 8.80664 8.50195 8.98633C8.2832 9.16211 8.17383 9.39258 8.17383 9.67773H6.48047C6.48047 9.23242 6.59961 8.83398 6.83789 8.48242C7.08008 8.12695 7.41602 7.84961 7.8457 7.65039C8.2793 7.45117 8.75586 7.35156 9.27539 7.35156C10.1777 7.35156 10.8848 7.56836 11.3965 8.00195C11.9082 8.43164 12.1641 9.02539 12.1641 9.7832C12.1641 10.1738 12.0449 10.5332 11.8066 10.8613C11.5684 11.1895 11.2559 11.4414 10.8691 11.6172C11.3496 11.7891 11.707 12.0469 11.9414 12.3906C12.1797 12.7344 12.2988 13.1406 12.2988 13.6094C12.2988 14.3672 12.0215 14.9746 11.4668 15.4316C10.916 15.8887 10.1855 16.1172 9.27539 16.1172C8.42383 16.1172 7.72656 15.8926 7.18359 15.4434C6.64453 14.9941 6.375 14.4004 6.375 13.6621H8.06836C8.06836 13.9824 8.1875 14.2441 8.42578 14.4473C8.66797 14.6504 8.96484 14.752 9.31641 14.752C9.71875 14.752 10.0332 14.6465 10.2598 14.4355C10.4902 14.2207 10.6055 13.9375 10.6055 13.5859C10.6055 12.7344 10.1367 12.3086 9.19922 12.3086H8.30273V10.9844ZM17.8316 12.5898C17.3902 13.0234 16.8746 13.2402 16.2848 13.2402C15.5309 13.2402 14.9273 12.9824 14.4742 12.4668C14.0211 11.9473 13.7945 11.248 13.7945 10.3691C13.7945 9.81055 13.9156 9.29883 14.1578 8.83398C14.4039 8.36523 14.7457 8.00195 15.1832 7.74414C15.6207 7.48242 16.1129 7.35156 16.6598 7.35156C17.2223 7.35156 17.7223 7.49219 18.1598 7.77344C18.5973 8.05469 18.9371 8.45898 19.1793 8.98633C19.4215 9.51367 19.5445 10.1172 19.5484 10.7969V11.4238C19.5484 12.8457 19.1949 13.9629 18.4879 14.7754C17.7809 15.5879 16.7789 16.0215 15.482 16.0762L15.066 16.082V14.6699L15.441 14.6641C16.9137 14.5977 17.7105 13.9062 17.8316 12.5898ZM16.7008 11.9453C16.9742 11.9453 17.2086 11.875 17.4039 11.7344C17.6031 11.5938 17.7535 11.4238 17.8551 11.2246V10.5273C17.8551 9.95312 17.7457 9.50781 17.527 9.19141C17.3082 8.875 17.0152 8.7168 16.648 8.7168C16.3082 8.7168 16.0289 8.87305 15.8102 9.18555C15.5914 9.49414 15.482 9.88281 15.482 10.3516C15.482 10.8164 15.5875 11.1992 15.7984 11.5C16.0133 11.7969 16.3141 11.9453 16.7008 11.9453Z" fill="white"/>
</svg>
