<svg width="368" height="24" fill="none" xmlns="http://www.w3.org/2000/svg"><path fill="#2F71E5" d="M0 0h368v24H0z"/><path d="M8.303 10.984h.902c.43 0 .748-.107.955-.322.207-.215.31-.5.31-.855 0-.344-.103-.612-.31-.803-.203-.191-.484-.287-.844-.287-.324 0-.595.09-.814.27a.844.844 0 00-.328.69H6.48c0-.445.12-.843.358-1.195a2.417 2.417 0 011.008-.832c.433-.199.91-.298 1.43-.298.902 0 1.609.216 2.12.65.512.43.768 1.023.768 1.781 0 .39-.12.75-.357 1.078a2.32 2.32 0 01-.938.756c.48.172.838.43 1.072.774.239.343.358.75.358 1.218 0 .758-.277 1.366-.832 1.823-.551.457-1.282.685-2.192.685-.851 0-1.548-.224-2.091-.674-.54-.449-.809-1.043-.809-1.78h1.693c0 .32.12.581.358.784.242.203.539.305.89.305.403 0 .717-.106.944-.317.23-.214.345-.498.345-.85 0-.85-.468-1.276-1.406-1.276h-.896v-1.325zM18.88 12.79h.966v1.365h-.966V16h-1.694v-1.846H13.69l-.076-1.066 3.556-5.62h1.712v5.321zm-3.58 0h1.886V9.777l-.111.194-1.776 2.818z" fill="#fff"/></svg>