<svg width="256" height="24" fill="none" xmlns="http://www.w3.org/2000/svg"><path fill="#2F71E5" d="M0 0h256v24H0z"/><path d="M10.693 16H9V9.473l-2.021.627V8.723l3.533-1.266h.181V16zm8.738-6.264c0 .414-.103.782-.31 1.102a2.24 2.24 0 01-.856.768c.414.199.742.474.985.826.242.347.363.758.363 1.23 0 .758-.258 1.357-.773 1.799-.516.437-1.217.656-2.104.656s-1.59-.22-2.11-.662c-.519-.441-.779-1.039-.779-1.793 0-.473.121-.885.364-1.236.242-.352.568-.625.978-.82a2.235 2.235 0 01-.855-.768 2.013 2.013 0 01-.305-1.102c0-.726.242-1.304.726-1.734.485-.434 1.143-.65 1.975-.65.828 0 1.485.214 1.969.644.488.426.732 1.006.732 1.74zm-1.517 3.803c0-.371-.108-.668-.323-.89-.214-.223-.504-.334-.867-.334-.36 0-.646.11-.861.333-.215.22-.322.516-.322.891 0 .363.105.656.316.879.211.223.504.334.879.334.367 0 .654-.107.861-.322.211-.215.317-.512.317-.89zm-.176-3.72c0-.333-.088-.598-.264-.798-.176-.203-.424-.304-.744-.304-.316 0-.562.097-.738.293-.176.195-.264.465-.264.808 0 .34.088.614.264.82.176.208.424.311.744.311s.566-.103.738-.31c.176-.207.264-.48.264-.82z" fill="#fff"/></svg>