<svg width="184" height="24" fill="none" xmlns="http://www.w3.org/2000/svg"><path fill="#2F71E5" d="M0 0h184v24H0z"/><path d="M10.693 16H9V9.473l-2.021.627V8.723l3.533-1.266h.181V16zm3.43-4.195l.492-4.336h4.781V8.88h-3.393l-.21 1.834c.402-.215.83-.322 1.283-.322.812 0 1.449.252 1.91.755.46.504.691 1.21.691 2.116 0 .55-.117 1.045-.351 1.482-.23.434-.563.772-.996 1.014-.434.238-.946.357-1.535.357-.516 0-.995-.103-1.436-.31a2.588 2.588 0 01-1.049-.885 2.417 2.417 0 01-.404-1.295h1.676c.035.355.158.633.369.832.215.195.494.293.838.293.383 0 .677-.137.884-.41.208-.277.311-.668.311-1.172 0-.485-.12-.855-.357-1.113-.239-.258-.577-.387-1.014-.387-.402 0-.729.105-.979.316l-.164.153-1.347-.334z" fill="#fff"/></svg>