<svg width="816" height="24" fill="none" xmlns="http://www.w3.org/2000/svg"><path fill="#2F71E5" d="M0 0h816v24H0z"/><path d="M12.38 8.418L9.083 16H7.295L10.6 8.84H6.357V7.469h6.024v.949zm3.213 2.566h.903c.43 0 .748-.107.955-.322.207-.215.31-.5.31-.855 0-.344-.103-.612-.31-.803-.203-.191-.485-.287-.844-.287-.324 0-.596.09-.814.27a.844.844 0 00-.329.69h-1.693c0-.445.12-.843.357-1.195a2.417 2.417 0 011.008-.832c.434-.199.91-.298 1.43-.298.902 0 1.61.216 2.121.65.512.43.768 1.023.768 1.781 0 .39-.12.75-.358 1.078-.238.329-.55.58-.937.756.48.172.838.43 1.072.774.238.343.358.75.358 1.218 0 .758-.278 1.366-.833 1.823-.55.457-1.28.685-2.191.685-.851 0-1.549-.224-2.092-.674-.539-.449-.808-1.043-.808-1.78h1.693c0 .32.12.581.357.784.243.203.54.305.891.305.402 0 .717-.106.943-.317.23-.214.346-.498.346-.85 0-.85-.469-1.276-1.406-1.276h-.897v-1.325z" fill="#fff"/></svg>