<svg width="424" height="24" fill="none" xmlns="http://www.w3.org/2000/svg"><path fill="#2F71E5" d="M0 0h424v24H0z"/><path d="M8.303 10.984h.902c.43 0 .748-.107.955-.322.207-.215.31-.5.31-.855 0-.344-.103-.612-.31-.803-.203-.191-.484-.287-.844-.287-.324 0-.595.09-.814.27a.844.844 0 00-.328.69H6.48c0-.445.12-.843.358-1.195a2.417 2.417 0 011.008-.832c.433-.199.91-.298 1.43-.298.902 0 1.609.216 2.12.65.512.43.768 1.023.768 1.781 0 .39-.12.75-.357 1.078a2.32 2.32 0 01-.938.756c.48.172.838.43 1.072.774.239.343.358.75.358 1.218 0 .758-.277 1.366-.832 1.823-.551.457-1.282.685-2.192.685-.851 0-1.548-.224-2.091-.674-.54-.449-.809-1.043-.809-1.78h1.693c0 .32.12.581.358.784.242.203.539.305.89.305.403 0 .717-.106.944-.317.23-.214.345-.498.345-.85 0-.85-.468-1.276-1.406-1.276h-.896v-1.325zm9.529 1.606c-.442.433-.957.65-1.547.65-.754 0-1.358-.258-1.81-.773-.454-.52-.68-1.219-.68-2.098 0-.558.12-1.07.363-1.535a2.682 2.682 0 011.025-1.09 2.82 2.82 0 011.477-.392c.562 0 1.062.14 1.5.421.437.282.777.686 1.02 1.213.242.528.364 1.131.368 1.81v.628c0 1.422-.353 2.539-1.06 3.351-.707.813-1.71 1.246-3.006 1.301l-.416.006V14.67l.375-.006c1.473-.066 2.27-.758 2.39-2.074zm-1.131-.645c.273 0 .508-.07.703-.21.2-.141.35-.311.451-.51v-.698c0-.574-.11-1.02-.328-1.336-.219-.316-.512-.474-.879-.474-.34 0-.62.156-.838.469-.219.308-.328.697-.328 1.166 0 .464.106.847.316 1.148.215.297.516.445.903.445z" fill="#fff"/></svg>